<svg width="61" height="93" viewBox="0 0 61 93" fill="none" xmlns="http://www.w3.org/2000/svg">
<path d="M0.363281 0.78125H60.3633V80.3488L0.363281 92.7812V0.78125Z" fill="#65635F"/>
<path d="M21.9049 33.2504V41.6504H22.9249V33.2504H21.9049ZM24.4249 41.6504C25.2409 41.6504 25.9649 41.4744 26.5969 41.1224C27.2289 40.7704 27.7249 40.2824 28.0849 39.6584C28.4449 39.0264 28.6249 38.2904 28.6249 37.4504C28.6249 36.6104 28.4449 35.8784 28.0849 35.2544C27.7249 34.6224 27.2289 34.1304 26.5969 33.7784C25.9649 33.4264 25.2409 33.2504 24.4249 33.2504H22.4689V34.2704H24.4249C24.8969 34.2704 25.3289 34.3464 25.7209 34.4984C26.1129 34.6424 26.4489 34.8544 26.7289 35.1344C27.0089 35.4064 27.2249 35.7384 27.3769 36.1304C27.5289 36.5224 27.6049 36.9624 27.6049 37.4504C27.6049 37.9384 27.5289 38.3784 27.3769 38.7704C27.2249 39.1624 27.0089 39.4984 26.7289 39.7784C26.4489 40.0504 26.1129 40.2624 25.7209 40.4144C25.3289 40.5584 24.8969 40.6304 24.4249 40.6304H22.4689V41.6504H24.4249ZM31.8612 37.4504C31.8612 36.8184 31.9972 36.2544 32.2692 35.7584C32.5492 35.2624 32.9292 34.8704 33.4092 34.5824C33.8892 34.2944 34.4332 34.1504 35.0412 34.1504C35.6572 34.1504 36.2012 34.2944 36.6732 34.5824C37.1532 34.8704 37.5292 35.2624 37.8012 35.7584C38.0812 36.2544 38.2212 36.8184 38.2212 37.4504C38.2212 38.0824 38.0812 38.6464 37.8012 39.1424C37.5292 39.6384 37.1532 40.0304 36.6732 40.3184C36.2012 40.6064 35.6572 40.7504 35.0412 40.7504C34.4332 40.7504 33.8892 40.6064 33.4092 40.3184C32.9292 40.0304 32.5492 39.6384 32.2692 39.1424C31.9972 38.6464 31.8612 38.0824 31.8612 37.4504ZM30.7812 37.4504C30.7812 38.0584 30.8852 38.6264 31.0932 39.1544C31.3092 39.6824 31.6092 40.1424 31.9932 40.5344C32.3772 40.9184 32.8292 41.2224 33.3492 41.4464C33.8692 41.6624 34.4332 41.7704 35.0412 41.7704C35.6572 41.7704 36.2212 41.6624 36.7332 41.4464C37.2532 41.2224 37.7052 40.9184 38.0892 40.5344C38.4732 40.1424 38.7692 39.6824 38.9772 39.1544C39.1932 38.6264 39.3012 38.0584 39.3012 37.4504C39.3012 36.8344 39.1932 36.2664 38.9772 35.7464C38.7692 35.2184 38.4732 34.7624 38.0892 34.3784C37.7052 33.9864 37.2532 33.6824 36.7332 33.4664C36.2212 33.2424 35.6572 33.1304 35.0412 33.1304C34.4332 33.1304 33.8692 33.2424 33.3492 33.4664C32.8292 33.6824 32.3772 33.9864 31.9932 34.3784C31.6092 34.7624 31.3092 35.2184 31.0932 35.7464C30.8852 36.2664 30.7812 36.8344 30.7812 37.4504ZM38.2221 51.6504C38.3021 51.6504 38.3421 51.6984 38.3421 51.7944C38.3421 51.8904 38.3021 51.9384 38.2221 51.9384C37.2941 51.9384 36.2141 52.6904 34.9821 54.1944L31.5261 58.5384L33.9021 64.6584C34.1261 65.2824 34.3981 65.7224 34.7181 65.9784C35.0541 66.2344 35.5101 66.3624 36.0861 66.3624C36.1501 66.3624 36.1821 66.4104 36.1821 66.5064C36.1821 66.6024 36.1501 66.6504 36.0861 66.6504C35.7341 66.6504 35.4541 66.6424 35.2461 66.6264L34.0701 66.6024L32.4381 66.6264C32.1661 66.6424 31.8141 66.6504 31.3821 66.6504C31.3181 66.6504 31.2861 66.6024 31.2861 66.5064C31.2861 66.4104 31.3181 66.3624 31.3821 66.3624C31.7981 66.3624 32.1021 66.3224 32.2941 66.2424C32.5021 66.1464 32.6061 65.9944 32.6061 65.7864C32.6061 65.6904 32.5821 65.5704 32.5341 65.4264L30.3501 59.7864L26.7501 64.3944C26.3021 64.9544 26.0781 65.3944 26.0781 65.7144C26.0781 66.1464 26.4541 66.3624 27.2061 66.3624C27.2701 66.3624 27.3021 66.4104 27.3021 66.5064C27.3021 66.6024 27.2701 66.6504 27.2061 66.6504C26.7901 66.6504 26.4701 66.6424 26.2461 66.6264L24.7581 66.6024L23.8941 66.6264C23.7341 66.6424 23.4701 66.6504 23.1021 66.6504C23.0381 66.6504 23.0061 66.6024 23.0061 66.5064C23.0061 66.4104 23.0381 66.3624 23.1021 66.3624C23.5661 66.3624 24.0701 66.1864 24.6141 65.8344C25.1741 65.4824 25.7261 64.9704 26.2701 64.2984L30.1821 59.3544L27.9741 53.6424C27.7341 53.0184 27.4621 52.5784 27.1581 52.3224C26.8701 52.0664 26.4941 51.9384 26.0301 51.9384C25.9661 51.9384 25.9341 51.8904 25.9341 51.7944C25.9341 51.6984 25.9661 51.6504 26.0301 51.6504L26.7741 51.6744C27.1261 51.7064 27.3901 51.7224 27.5661 51.7224C28.0621 51.7224 28.6461 51.7064 29.3181 51.6744L30.3981 51.6504C30.4621 51.6504 30.4941 51.6984 30.4941 51.7944C30.4941 51.8904 30.4621 51.9384 30.3981 51.9384C29.6301 51.9384 29.2461 52.1304 29.2461 52.5144C29.2461 52.5784 29.2781 52.7064 29.3421 52.8984L31.3581 58.1064L34.5021 54.0744C34.9981 53.4344 35.2461 52.9384 35.2461 52.5864C35.2461 52.1544 34.8861 51.9384 34.1661 51.9384C34.1021 51.9384 34.0701 51.8904 34.0701 51.7944C34.0701 51.6984 34.1021 51.6504 34.1661 51.6504L35.1261 51.6744C35.6701 51.7064 36.1661 51.7224 36.6141 51.7224C36.8381 51.7224 37.1261 51.7064 37.4781 51.6744L38.2221 51.6504Z" fill="white"/>
</svg>
