<svg width="24" height="30" viewBox="0 0 24 30" fill="none" xmlns="http://www.w3.org/2000/svg">
<path d="M11.9211 5.26953C11.2569 5.44779 10.5927 5.62662 9.92788 5.80564C9.60599 5.89232 9.28393 5.97904 8.96162 6.06576C8.72218 6.13181 8.67264 6.23089 8.77998 6.46207C8.81985 6.54581 8.85973 6.62976 8.89967 6.71386C9.10785 7.15216 9.31791 7.59439 9.53958 8.03082C9.57261 8.09687 9.69646 8.15467 9.77902 8.15467C10.493 8.16218 11.2071 8.16799 11.9211 8.17364V5.26953Z" fill="#161412"/>
<path fill-rule="evenodd" clip-rule="evenodd" d="M11.9211 11.4774C11.6345 11.5184 11.348 11.5595 11.0616 11.6006C9.97413 11.7567 8.88725 11.9128 7.79745 12.06C7.25251 12.1343 6.76538 12.3407 6.31126 12.6132C5.97683 12.815 5.66655 13.0571 5.35512 13.3001C5.22062 13.405 5.0859 13.5102 4.94893 13.6123C4.44872 13.9866 3.94711 14.3595 3.44583 14.7321C2.7308 15.2637 2.01644 15.7948 1.30778 16.3287C0.911469 16.6259 0.639002 17.0305 0.54818 17.5176C0.490384 17.7818 0.498641 18.0708 0.688542 18.335C0.903152 18.0131 1.10126 17.7077 1.29936 17.4023C1.31232 17.412 1.32163 17.4177 1.32796 17.4217C1.33776 17.4281 1.34081 17.43 1.34081 17.4351C1.36231 17.5139 1.37758 17.5989 1.39204 17.6794C1.39424 17.6916 1.39642 17.7038 1.39861 17.7158C1.65456 19.0946 2.13344 20.4074 2.66186 21.7037C2.7114 21.8275 2.7114 21.9101 2.62884 22.0174L2.62798 22.0186C1.87692 23.0503 1.12586 24.082 0.374792 25.1054C0.283969 25.2375 0.267457 25.3531 0.316996 25.5017C0.465614 25.9311 0.605976 26.3687 0.746337 26.8063L1.66282 29.7043C1.67933 29.7621 1.72887 29.8612 1.7619 29.8612C2.03909 29.8735 2.31629 29.872 2.6072 29.8705C2.70622 29.87 2.80682 29.8694 2.90956 29.8694C2.65714 28.899 2.40091 27.9286 2.14605 26.9634C2.02577 26.5079 1.90579 26.0535 1.78666 25.6008C1.88077 25.5605 1.97365 25.522 2.06532 25.484C2.31147 25.3819 2.54884 25.2835 2.77745 25.1632C3.65265 24.6926 4.37923 24.0238 4.96545 23.2147C5.14709 22.967 5.32048 22.8679 5.61771 22.9092C5.80527 22.9319 5.99282 22.939 6.19383 22.9466C6.28484 22.95 6.37861 22.9536 6.4764 22.9587C6.44931 22.9948 6.42531 23.0272 6.40356 23.0566C6.34572 23.1347 6.30372 23.1914 6.26173 23.2394C5.95345 23.6392 5.64379 24.0375 5.33388 24.4362C4.88845 25.0092 4.4425 25.5828 3.99943 26.1622C3.93337 26.2531 3.89209 26.4099 3.91686 26.5173C4.12008 27.5334 4.33703 28.5426 4.55519 29.5575C4.57634 29.6559 4.5975 29.7544 4.61867 29.8529C4.62692 29.9107 4.68472 30.0016 4.726 30.0016C4.96029 30.0016 5.19459 29.9944 5.43125 29.9871C5.55321 29.9834 5.67581 29.9796 5.79936 29.9768C5.79586 29.9313 5.79384 29.8932 5.79205 29.8594C5.78962 29.8135 5.7876 29.7754 5.78284 29.7373C5.63423 28.7713 5.47735 27.8053 5.31222 26.8393C5.28745 26.6989 5.32048 26.6411 5.44432 26.5916C7.21949 25.865 8.58182 24.6596 9.57261 23.033C9.61389 22.967 9.71297 22.9092 9.79554 22.9009C9.92943 22.8778 10.0659 22.8676 10.2035 22.8574C10.312 22.8493 10.4212 22.8412 10.5304 22.8266C10.9964 22.7645 11.4602 22.6918 11.9211 22.6064V16.3369H10.7698C10.7556 16.3369 10.7412 16.3371 10.7268 16.3373C10.5813 16.3394 10.4283 16.3415 10.3983 16.1388C10.3735 15.9736 10.5386 15.8168 10.7533 15.8168C11.1426 15.8168 11.5318 15.8303 11.9211 15.8452V14.7784C11.7024 14.8646 11.4854 14.9545 11.2678 15.0445C11.1106 15.1096 10.9532 15.1748 10.7946 15.2388C10.754 15.254 10.7103 15.263 10.6596 15.2734C10.6278 15.28 10.5933 15.2871 10.5551 15.2966C10.5406 15.2879 10.52 15.2802 10.4983 15.2721C10.4582 15.2572 10.4143 15.2408 10.3983 15.214C10.3818 15.1645 10.4065 15.0819 10.4395 15.0324C10.4808 14.9746 10.5469 14.9251 10.6129 14.9003C10.9212 14.7723 11.2336 14.6526 11.5472 14.5323C11.6717 14.4846 11.7964 14.4368 11.9211 14.3883V12.8327C11.9007 12.8394 11.8802 12.8461 11.8597 12.8528C11.7501 12.8887 11.6401 12.9247 11.5294 12.96C11.4379 12.9895 11.3465 13.0192 11.2549 13.049C10.859 13.1777 10.4621 13.3068 10.0597 13.4141C10.046 13.417 10.0311 13.4209 10.0152 13.425C9.89684 13.4555 9.72698 13.4994 9.64692 13.2737C10.1653 12.946 10.744 12.7731 11.3238 12.5998C11.5236 12.5401 11.7235 12.4804 11.9211 12.4143V11.4774ZM8.29284 14.6113V14.5948C8.18396 14.5948 8.07456 14.5953 7.96466 14.5958C7.63286 14.5974 7.2964 14.5989 6.95528 14.5865C6.80666 14.5783 6.6663 14.5287 6.52594 14.4792C6.49291 14.4709 6.44337 14.3801 6.45163 14.3636C6.46963 14.3416 6.48763 14.3167 6.50587 14.2915C6.56291 14.2125 6.62225 14.1304 6.69107 14.1242C7.11215 14.0829 7.54149 14.0746 7.97084 14.0746C8.21189 14.0746 8.45838 14.0963 8.70149 14.1178C8.75815 14.1228 8.81462 14.1277 8.8708 14.1324C8.87604 14.1328 8.88129 14.1331 8.88655 14.1334C9.00557 14.141 9.12641 14.1487 9.1185 14.3306C9.10198 14.5287 9.02768 14.6113 8.84603 14.6113H8.29284ZM5.33286 16.3775C5.26766 16.4035 5.20023 16.4305 5.13058 16.4608C5.10787 16.4484 5.08207 16.4355 5.05626 16.4226C4.97886 16.3839 4.90146 16.3452 4.90765 16.3204C4.92416 16.2213 4.9737 16.081 5.04801 16.0397C5.61766 15.7177 6.19556 15.4123 6.77346 15.1068C6.91382 15.0407 7.07913 14.9994 7.15344 15.1893C7.21949 15.3544 7.12867 15.4452 6.96353 15.5278C6.70059 15.6593 6.44338 15.8022 6.18684 15.9448C6.00839 16.044 5.83026 16.143 5.65074 16.2378C5.5514 16.2901 5.44544 16.3325 5.33286 16.3775ZM7.50835 16.775C7.53818 16.7778 7.56844 16.7806 7.59929 16.7828C7.62406 17.0883 7.55801 17.1543 7.31031 17.1791C7.05435 17.1997 6.80046 17.2266 6.54656 17.2534C6.29268 17.2802 6.03879 17.3071 5.78284 17.3277C5.65074 17.336 5.51038 17.2947 5.38653 17.2534C5.3535 17.2369 5.32873 17.0718 5.36176 17.047C5.45258 16.9809 5.56817 16.9066 5.68377 16.8984C6.08006 16.855 6.47636 16.8256 6.87266 16.7962C7.00478 16.7864 7.13691 16.7766 7.26903 16.7663C7.34772 16.7602 7.42641 16.7675 7.50835 16.775ZM7.43979 15.9031C7.40709 15.904 7.37238 15.9049 7.33508 15.9076C7.39504 15.6752 7.55705 15.6266 7.70378 15.5825C7.71869 15.5781 7.73344 15.5736 7.74791 15.5691C8.15393 15.4236 8.56884 15.2915 8.98286 15.1597C9.13293 15.1119 9.28288 15.0642 9.43225 15.0159C9.44326 15.0131 9.45426 15.0085 9.46527 15.004C9.48729 14.9948 9.50931 14.9856 9.53133 14.9911C9.58912 15.0076 9.64692 15.0324 9.69646 15.0572C9.68633 15.0749 9.67775 15.0949 9.6693 15.1147C9.6502 15.1594 9.63173 15.2026 9.59738 15.214C9.42399 15.2883 9.24235 15.3544 9.0607 15.4122L7.62406 15.8828C7.56813 15.8996 7.50842 15.9012 7.43979 15.9031ZM7.64363 13.5476C7.60939 13.557 7.57302 13.567 7.53324 13.5792C7.52349 13.5734 7.51099 13.5666 7.49779 13.5595C7.45506 13.5364 7.40503 13.5093 7.41765 13.4967C7.4259 13.4224 7.45067 13.3315 7.50847 13.2903C7.64883 13.1912 7.81396 13.1086 7.97084 13.0343C8.00582 13.019 8.04065 13.0037 8.0754 12.9884C8.30311 12.8884 8.52707 12.79 8.76347 12.704C8.81519 12.6868 8.88292 12.7056 8.94994 12.7241C8.9792 12.7322 9.00833 12.7403 9.03593 12.7453C9.0144 12.7761 8.99745 12.8126 8.98081 12.8484C8.9528 12.9087 8.92568 12.9671 8.87906 12.993C8.5788 13.1466 8.27855 13.2825 7.9733 13.4207C7.91761 13.4459 7.86176 13.4712 7.8057 13.4967C7.75374 13.5175 7.70177 13.5317 7.64363 13.5476ZM10.712 17.5424V17.5259C10.6346 17.5259 10.5582 17.5268 10.4821 17.5277C10.3307 17.5296 10.1805 17.5314 10.0267 17.5259C9.9785 17.5205 9.93376 17.4804 9.88799 17.4393C9.86322 17.4171 9.83814 17.3947 9.81205 17.3773C9.83682 17.3607 9.86159 17.3387 9.88636 17.3167C9.9359 17.2727 9.98544 17.2286 10.035 17.2286C10.4726 17.2204 10.9102 17.2286 11.3478 17.2452C11.3891 17.2452 11.4346 17.2916 11.4783 17.3361C11.4958 17.3539 11.5129 17.3714 11.5294 17.3855C11.5087 17.401 11.488 17.4206 11.467 17.4405C11.4211 17.4839 11.374 17.5285 11.323 17.5341C11.1816 17.5518 11.0361 17.5485 10.8893 17.5451C10.8304 17.5437 10.7712 17.5424 10.712 17.5424ZM3.47926 15.8993C3.71045 15.7177 5.02324 15.2388 5.38653 15.2223C5.36453 15.2516 5.34614 15.2788 5.32967 15.3031C5.29049 15.361 5.26208 15.403 5.2214 15.4205C4.79365 15.5903 4.3659 15.7505 3.93451 15.9122C3.79967 15.9627 3.66447 16.0133 3.5288 16.0645C3.50839 16.0696 3.48167 16.0684 3.44475 16.0667C3.42193 16.0657 3.39521 16.0645 3.36367 16.0645C3.37953 16.0407 3.39286 16.0186 3.405 15.9984C3.43077 15.9557 3.4512 15.9218 3.47926 15.8993ZM7.47544 18.2277V18.2194C7.43028 18.2194 7.38462 18.2204 7.33869 18.2215C7.19989 18.2246 7.05874 18.2277 6.92225 18.2029C6.87115 18.1972 6.82785 18.1564 6.78431 18.1154C6.76454 18.0967 6.74472 18.078 6.72409 18.0626C6.74584 18.049 6.7667 18.0318 6.78725 18.0149C6.82911 17.9804 6.86969 17.947 6.91399 17.947C7.30205 17.947 7.68186 17.9552 8.06166 17.9717C8.09468 17.9717 8.12771 18.0084 8.16074 18.0451C8.17725 18.0635 8.19376 18.0818 8.21028 18.0956C8.18967 18.1103 8.17012 18.1292 8.15087 18.1478C8.11611 18.1814 8.08234 18.2141 8.04514 18.2194C7.90272 18.2318 7.76029 18.2303 7.61786 18.2287C7.57039 18.2282 7.52291 18.2277 7.47544 18.2277ZM10.7294 14.1791C10.6357 14.2156 10.5418 14.2522 10.4478 14.2893C10.433 14.2745 10.416 14.2618 10.4004 14.2501C10.3725 14.2292 10.3487 14.2114 10.3487 14.1902C10.3487 14.1324 10.3735 14.0416 10.4148 14.0168C10.5469 13.9425 10.6872 13.8765 10.8359 13.8187C11.0175 13.7526 11.1992 13.6866 11.3808 13.637C11.4221 13.6205 11.5129 13.6701 11.5377 13.7113C11.5542 13.7444 11.5294 13.8517 11.4964 13.8682C11.2475 13.9775 10.9896 14.0779 10.7294 14.1791ZM9.46469 16.3899C9.47256 16.4065 9.48072 16.4236 9.49004 16.436C9.48234 16.4489 9.47623 16.4617 9.47047 16.4738C9.45774 16.5006 9.44674 16.5237 9.42399 16.5351C9.34968 16.6121 9.27629 16.6901 9.2029 16.7681C9.05612 16.9241 8.90933 17.08 8.75521 17.2286C8.71537 17.2685 8.65592 17.2809 8.59848 17.2928C8.57259 17.2982 8.54711 17.3035 8.52403 17.3112C8.5295 17.2838 8.53135 17.2537 8.53317 17.2239C8.53685 17.1638 8.54046 17.1049 8.57356 17.0718C8.78824 16.8323 9.01942 16.6011 9.25886 16.37C9.29189 16.3369 9.3662 16.3369 9.42399 16.3369C9.43944 16.3369 9.45167 16.3626 9.46469 16.3899ZM3.71045 17.6786C3.70012 17.6683 3.6898 17.658 3.67742 17.6497C3.68182 17.6365 3.68504 17.6216 3.68835 17.6063C3.69745 17.5641 3.70712 17.5193 3.74347 17.5011C3.94163 17.3773 4.14804 17.2617 4.36271 17.1543C4.39574 17.1378 4.47005 17.1543 4.48656 17.1791C4.50308 17.2039 4.48656 17.2864 4.46179 17.3029C4.22235 17.4433 3.98291 17.5754 3.74347 17.7075C3.73109 17.6993 3.72077 17.6889 3.71045 17.6786Z" fill="#161412"/>
<path fill-rule="evenodd" clip-rule="evenodd" d="M11.9209 8.17209V5.26798C12.7722 5.03952 13.6236 4.81202 14.4768 4.58628C14.6667 4.53549 14.8573 4.4841 15.0482 4.4326C15.5712 4.29156 16.0973 4.14964 16.6235 4.01658C16.7804 3.9753 16.7969 3.90924 16.7639 3.76888C16.6813 3.49642 16.607 3.21569 16.541 2.93497C16.5162 2.81938 16.4501 2.76984 16.3345 2.75332C16.157 2.72443 15.9774 2.69346 15.7979 2.6625C15.6183 2.63154 15.4387 2.60058 15.2612 2.57168C15.0752 2.54168 15.0854 2.42883 15.0954 2.31869C15.0991 2.27727 15.1028 2.23624 15.0961 2.20013C15.0713 2.06803 15.1539 2.02675 15.2694 2.01023C15.5667 1.96895 15.8639 1.91942 16.2106 1.86162C16.0909 1.60567 15.9733 1.35796 15.8557 1.11027C15.738 0.86257 15.6204 0.614872 15.5006 0.358918C15.6469 0.29334 15.784 0.227761 15.9249 0.1603C16.0147 0.117344 16.1061 0.0736245 16.2024 0.0286555C16.7391 1.25063 17.2675 2.45609 17.8042 3.70283C17.853 3.63132 17.9004 3.56366 17.9466 3.49781C18.0178 3.3964 18.0859 3.2993 18.151 3.19918C18.3071 2.96357 18.4611 2.72586 18.6152 2.48792C18.8932 2.05881 19.1717 1.62895 19.4638 1.20935C19.5794 1.04421 19.761 0.879083 19.9427 0.821287C21.0078 0.474511 22.0811 0.135991 23.204 0.0121426C23.2713 0.00487032 23.3253 0 23.3688 0C23.5228 0 23.5444 0.0610799 23.5508 0.292866C23.5519 0.3229 23.5524 0.352776 23.5524 0.382494C23.5524 0.383523 23.5524 0.384552 23.5524 0.385581C23.552 1.03269 23.3013 1.60523 22.915 2.11757C22.3371 2.89369 21.5857 3.46339 20.7436 3.90099C20.1441 4.20697 19.5304 4.47517 18.9133 4.74488C18.7145 4.83178 18.5153 4.91884 18.3161 5.00737C18.1427 5.08168 18.0602 5.15599 18.1015 5.37066C18.3491 6.52658 18.5886 7.69075 18.8198 8.84667C18.8971 9.23345 18.9793 9.62022 19.0616 10.0072C19.2427 10.8595 19.424 11.713 19.5546 12.5704C19.8601 14.585 20.1161 16.5996 20.3555 18.6225C20.4364 19.3032 20.4677 19.995 20.499 20.6842C20.506 20.8393 20.513 20.9943 20.5206 21.149C20.5933 22.4257 20.6503 23.7104 20.7068 24.9874L20.7105 25.0708C20.7436 25.7644 20.7766 26.46 20.8096 27.1556C20.8426 27.8512 20.8757 28.5468 20.9087 29.2404L20.9335 29.7358C20.9417 29.8431 20.9004 29.9009 20.7848 29.9009C20.4876 29.9092 20.1821 29.9257 19.8849 29.9422C19.7445 29.9505 19.7363 29.8596 19.728 29.7606L19.7214 29.6823C19.641 28.7337 19.56 27.7777 19.4555 26.8295C19.4194 26.5188 19.339 26.2082 19.2587 25.8976C19.2472 25.8532 19.2357 25.8088 19.2243 25.7644L18.1592 21.6278C18.0962 21.3925 18.0353 21.1572 17.9733 20.9176C17.9135 20.6863 17.8526 20.451 17.7877 20.2077C17.7044 20.2658 17.6242 20.3246 17.5452 20.3825C17.3658 20.5141 17.1925 20.6412 17.0033 20.7444C16.6318 20.9508 16.5079 21.2315 16.574 21.6526C16.6012 21.8388 16.601 22.0275 16.6008 22.2159C16.6006 22.3701 16.6004 22.5241 16.6153 22.6764C16.6731 23.1636 16.7474 23.6507 16.8465 24.1296C17.0033 24.947 17.1602 25.7561 17.3584 26.5653C17.5429 27.3224 17.747 28.0747 17.9519 28.8296C18.0128 29.0543 18.0739 29.2793 18.1345 29.5046C18.1427 29.5459 18.151 29.5872 18.1675 29.6202C18.2501 29.8101 18.1675 29.8514 17.9859 29.8596C17.7134 29.8762 17.4409 29.9092 17.1685 29.9422C17.0364 29.9587 16.9786 29.9174 16.929 29.7853C16.5492 28.7037 16.1694 27.6304 15.7814 26.5488C15.6945 26.3052 15.6063 26.0622 15.5181 25.8194C15.3043 25.231 15.0908 24.6432 14.8979 24.047C14.7366 23.5497 14.6027 23.0415 14.4694 22.5357C14.4389 22.42 14.4085 22.3045 14.3777 22.1893C14.3447 22.0737 14.3199 22.0242 14.1878 22.0654C13.4412 22.2869 12.6848 22.4633 11.9209 22.6049V16.3354H12.0081C12.2971 16.3601 12.3384 16.3271 12.3549 16.1125C12.3796 15.8652 12.2068 15.8565 12.0419 15.8483L12.0411 15.8482C12.0011 15.8467 11.961 15.8452 11.9209 15.8436V14.7768C11.9719 14.7567 12.023 14.7368 12.0742 14.7171C12.2063 14.6676 12.2971 14.6098 12.231 14.4529C12.1671 14.309 12.0566 14.3431 11.9523 14.3754C11.9488 14.3765 11.9454 14.3775 11.9421 14.3786C11.935 14.3813 11.9279 14.3841 11.9209 14.3868V12.8312C12.1752 12.748 12.4284 12.6662 12.6851 12.5952C12.694 12.5926 12.7025 12.5901 12.7109 12.5877C12.9993 12.5045 13.0051 12.5029 12.9328 12.1658C12.894 12.1723 12.8552 12.1762 12.8168 12.1801C12.7573 12.1861 12.6991 12.192 12.6439 12.2071C12.5841 12.2232 12.5237 12.2386 12.463 12.2542C12.3057 12.2944 12.1465 12.3351 11.9916 12.3887C11.9681 12.3968 11.9445 12.4048 11.9209 12.4127V11.4759C12.3762 11.4108 12.8318 11.346 13.2879 11.2824C13.5191 11.2493 13.6429 11.1668 13.7255 10.9438C13.949 10.3035 14.1858 9.67191 14.4229 9.0395C14.5099 8.80762 14.5968 8.57562 14.6832 8.34302C14.6865 8.33004 14.6884 8.31707 14.6906 8.30258C14.694 8.28021 14.698 8.25426 14.708 8.21917C14.6254 8.21092 14.5511 8.20266 14.4851 8.1944C13.7007 8.18615 12.9163 8.17995 12.132 8.17376C12.0616 8.17321 11.9912 8.17265 11.9209 8.17209ZM16.2107 6.17154C15.7483 6.84858 15.1704 7.34398 14.3365 7.51736C14.9392 6.81556 14.8153 6.14677 14.2291 5.45322C15.0135 5.46148 15.6245 5.7422 16.2107 6.17154ZM13.7007 5.51927C13.7172 5.51927 13.742 5.51928 13.7915 5.52753C13.3622 6.26237 13.3292 6.93941 14.0227 7.5669C13.9778 7.5669 13.9383 7.56799 13.9023 7.56898C13.839 7.57072 13.7864 7.57217 13.7337 7.5669C13.1475 7.48434 12.6356 7.23664 12.2475 6.78253C12.2145 6.7495 12.1815 6.65042 12.2063 6.6174C12.5613 6.08898 13.0319 5.71743 13.6429 5.52753C13.6594 5.51928 13.6842 5.51927 13.7007 5.51927ZM13.4035 16.8638C13.2879 16.9464 13.2053 16.8721 13.1805 16.6987C13.197 16.6727 13.2122 16.6454 13.2274 16.6181C13.2653 16.5499 13.3032 16.4816 13.3622 16.4345C13.6759 16.1207 14.0062 15.8152 14.3282 15.518C14.4025 15.4519 14.4851 15.3941 14.5676 15.3363C14.5783 15.3286 14.5889 15.3205 14.5994 15.3124C14.6782 15.2519 14.7536 15.194 14.8484 15.3033C14.9474 15.4272 14.9392 15.5428 14.8236 15.6418C14.5759 15.873 14.3199 16.1042 14.064 16.3271C13.8493 16.517 13.6346 16.6987 13.4035 16.8638ZM12.5302 13.558C12.5128 13.5343 12.4983 13.5147 12.4787 13.4951C12.4969 13.4838 12.5145 13.4711 12.5321 13.4585C12.5785 13.4251 12.6253 13.3915 12.6851 13.3795C13.2714 13.1401 13.8576 12.9089 14.452 12.6777C14.4856 12.6665 14.5306 12.6781 14.5741 12.6893C14.5947 12.6946 14.6151 12.6998 14.6337 12.7025C14.6245 12.7185 14.616 12.7364 14.6074 12.7545C14.585 12.8016 14.5622 12.8497 14.5264 12.8676C14.1548 13.0328 13.775 13.1896 13.3952 13.3382C13.2278 13.4017 13.0564 13.4572 12.8837 13.513C12.8094 13.537 12.7349 13.5611 12.6604 13.5859C12.641 13.5908 12.6188 13.5871 12.5954 13.5832C12.5789 13.5805 12.5619 13.5777 12.5448 13.5777C12.5396 13.5708 12.5348 13.5643 12.5302 13.558ZM14.5863 14.0073C14.4069 14.0366 14.2199 14.0672 14.0144 14.0979C14.0026 14.0884 13.9839 14.0768 13.9635 14.0642C13.9129 14.033 13.8517 13.9952 13.8576 13.9657C13.8658 13.8832 13.9319 13.7428 13.9979 13.7263C14.2765 13.6652 14.5551 13.6264 14.8383 13.5869C14.8992 13.5785 14.9603 13.5699 15.0218 13.5612C15.1456 13.5447 15.2199 13.5942 15.2282 13.7263C15.2364 13.8502 15.1786 13.9162 15.0548 13.9327C14.8994 13.956 14.7458 13.9812 14.5863 14.0073ZM12.551 15.4375C12.5353 15.4392 12.5194 15.441 12.5035 15.4437C12.5695 15.2207 13.7585 14.6015 14.13 14.6098C14.1171 14.6292 14.1053 14.6486 14.094 14.6671C14.0621 14.7195 14.0345 14.7649 13.9979 14.7831C13.5521 14.9978 13.098 15.2125 12.6439 15.4189C12.6158 15.4301 12.584 15.4337 12.551 15.4375Z" fill="#161412"/>
</svg>
