<svg width="60" height="93" viewBox="0 0 60 93" fill="none" xmlns="http://www.w3.org/2000/svg">
<path d="M0 0.78125H60V80.3488L0 92.7812V0.78125Z" fill="#161412"/>
<path d="M21.5416 33.2504V41.6504H22.5616V33.2504H21.5416ZM24.0616 41.6504C24.8776 41.6504 25.6016 41.4744 26.2336 41.1224C26.8656 40.7704 27.3616 40.2824 27.7216 39.6584C28.0816 39.0264 28.2616 38.2904 28.2616 37.4504C28.2616 36.6104 28.0816 35.8784 27.7216 35.2544C27.3616 34.6224 26.8656 34.1304 26.2336 33.7784C25.6016 33.4264 24.8776 33.2504 24.0616 33.2504H22.1056V34.2704H24.0616C24.5336 34.2704 24.9656 34.3464 25.3576 34.4984C25.7496 34.6424 26.0856 34.8544 26.3656 35.1344C26.6456 35.4064 26.8616 35.7384 27.0136 36.1304C27.1656 36.5224 27.2416 36.9624 27.2416 37.4504C27.2416 37.9384 27.1656 38.3784 27.0136 38.7704C26.8616 39.1624 26.6456 39.4984 26.3656 39.7784C26.0856 40.0504 25.7496 40.2624 25.3576 40.4144C24.9656 40.5584 24.5336 40.6304 24.0616 40.6304H22.1056V41.6504H24.0616ZM31.4979 37.4504C31.4979 36.8184 31.6339 36.2544 31.9059 35.7584C32.1859 35.2624 32.5659 34.8704 33.0459 34.5824C33.5259 34.2944 34.0699 34.1504 34.6779 34.1504C35.2939 34.1504 35.8379 34.2944 36.3099 34.5824C36.7899 34.8704 37.1659 35.2624 37.4379 35.7584C37.7179 36.2544 37.8579 36.8184 37.8579 37.4504C37.8579 38.0824 37.7179 38.6464 37.4379 39.1424C37.1659 39.6384 36.7899 40.0304 36.3099 40.3184C35.8379 40.6064 35.2939 40.7504 34.6779 40.7504C34.0699 40.7504 33.5259 40.6064 33.0459 40.3184C32.5659 40.0304 32.1859 39.6384 31.9059 39.1424C31.6339 38.6464 31.4979 38.0824 31.4979 37.4504ZM30.4179 37.4504C30.4179 38.0584 30.5219 38.6264 30.7299 39.1544C30.9459 39.6824 31.2459 40.1424 31.6299 40.5344C32.0139 40.9184 32.4659 41.2224 32.9859 41.4464C33.5059 41.6624 34.0699 41.7704 34.6779 41.7704C35.2939 41.7704 35.8579 41.6624 36.3699 41.4464C36.8899 41.2224 37.3419 40.9184 37.7259 40.5344C38.1099 40.1424 38.4059 39.6824 38.6139 39.1544C38.8299 38.6264 38.9379 38.0584 38.9379 37.4504C38.9379 36.8344 38.8299 36.2664 38.6139 35.7464C38.4059 35.2184 38.1099 34.7624 37.7259 34.3784C37.3419 33.9864 36.8899 33.6824 36.3699 33.4664C35.8579 33.2424 35.2939 33.1304 34.6779 33.1304C34.0699 33.1304 33.5059 33.2424 32.9859 33.4664C32.4659 33.6824 32.0139 33.9864 31.6299 34.3784C31.2459 34.7624 30.9459 35.2184 30.7299 35.7464C30.5219 36.2664 30.4179 36.8344 30.4179 37.4504ZM37.8588 51.6504C37.9388 51.6504 37.9788 51.6984 37.9788 51.7944C37.9788 51.8904 37.9388 51.9384 37.8588 51.9384C36.9308 51.9384 35.8508 52.6904 34.6188 54.1944L31.1628 58.5384L33.5388 64.6584C33.7628 65.2824 34.0348 65.7224 34.3548 65.9784C34.6908 66.2344 35.1468 66.3624 35.7228 66.3624C35.7868 66.3624 35.8188 66.4104 35.8188 66.5064C35.8188 66.6024 35.7868 66.6504 35.7228 66.6504C35.3708 66.6504 35.0908 66.6424 34.8828 66.6264L33.7068 66.6024L32.0748 66.6264C31.8028 66.6424 31.4508 66.6504 31.0188 66.6504C30.9548 66.6504 30.9228 66.6024 30.9228 66.5064C30.9228 66.4104 30.9548 66.3624 31.0188 66.3624C31.4348 66.3624 31.7388 66.3224 31.9308 66.2424C32.1388 66.1464 32.2428 65.9944 32.2428 65.7864C32.2428 65.6904 32.2188 65.5704 32.1708 65.4264L29.9868 59.7864L26.3868 64.3944C25.9388 64.9544 25.7148 65.3944 25.7148 65.7144C25.7148 66.1464 26.0908 66.3624 26.8428 66.3624C26.9068 66.3624 26.9388 66.4104 26.9388 66.5064C26.9388 66.6024 26.9068 66.6504 26.8428 66.6504C26.4268 66.6504 26.1068 66.6424 25.8828 66.6264L24.3948 66.6024L23.5308 66.6264C23.3708 66.6424 23.1068 66.6504 22.7388 66.6504C22.6748 66.6504 22.6428 66.6024 22.6428 66.5064C22.6428 66.4104 22.6748 66.3624 22.7388 66.3624C23.2028 66.3624 23.7068 66.1864 24.2508 65.8344C24.8108 65.4824 25.3628 64.9704 25.9068 64.2984L29.8188 59.3544L27.6108 53.6424C27.3708 53.0184 27.0988 52.5784 26.7948 52.3224C26.5068 52.0664 26.1308 51.9384 25.6668 51.9384C25.6028 51.9384 25.5708 51.8904 25.5708 51.7944C25.5708 51.6984 25.6028 51.6504 25.6668 51.6504L26.4108 51.6744C26.7628 51.7064 27.0268 51.7224 27.2028 51.7224C27.6988 51.7224 28.2828 51.7064 28.9548 51.6744L30.0348 51.6504C30.0988 51.6504 30.1308 51.6984 30.1308 51.7944C30.1308 51.8904 30.0988 51.9384 30.0348 51.9384C29.2668 51.9384 28.8828 52.1304 28.8828 52.5144C28.8828 52.5784 28.9148 52.7064 28.9788 52.8984L30.9948 58.1064L34.1388 54.0744C34.6348 53.4344 34.8828 52.9384 34.8828 52.5864C34.8828 52.1544 34.5228 51.9384 33.8028 51.9384C33.7388 51.9384 33.7068 51.8904 33.7068 51.7944C33.7068 51.6984 33.7388 51.6504 33.8028 51.6504L34.7628 51.6744C35.3068 51.7064 35.8028 51.7224 36.2508 51.7224C36.4748 51.7224 36.7628 51.7064 37.1148 51.6744L37.8588 51.6504Z" fill="white"/>
</svg>
