<svg width="25" height="25" viewBox="0 0 25 25" fill="none" xmlns="http://www.w3.org/2000/svg">
<path fill-rule="evenodd" clip-rule="evenodd" d="M10.7632 3.71875C7.07487 3.71875 4.08545 6.70817 4.08545 10.3965C4.08545 14.0848 7.07487 17.0742 10.7632 17.0742C12.2854 17.0742 13.6886 16.565 14.8117 15.7076L19.5878 20.4836L20.4717 19.5997L15.731 14.8591C16.7941 13.6764 17.4409 12.1121 17.4409 10.3965C17.4409 6.70817 14.4515 3.71875 10.7632 3.71875ZM5.33545 10.3965C5.33545 7.39852 7.76522 4.96875 10.7632 4.96875C13.7611 4.96875 16.1909 7.39852 16.1909 10.3965C16.1909 13.3944 13.7611 15.8242 10.7632 15.8242C7.76522 15.8242 5.33545 13.3944 5.33545 10.3965Z" fill="#161412"/>
</svg>
